<svg 
  xmlns="http://www.w3.org/2000/svg" fill="none" 
  x="20%"
  y="35%"
   width="50"
   height="28.228"
   viewBox="0 0 64.644 28.228"
  >
  <g
    id="svgGroup"
    stroke-linecap="round"
    fill-rule="evenodd"
    font-size="9pt"
    stroke="#F28BA3"
    stroke-width="0.25mm"
    fill=" #F9F4DA"
    style="stroke:#F28BA3;stroke-width:0.2mm;fill: #F9F4DA"
  >
      <path d="M 12.363 0 L 3.911 0 L 3.354 3.12 L 8.101 3.12 L 5.273 19.395 L 0.557 19.395 L 0 22.5 L 12.993 22.5 L 13.55 19.395 L 9.009 19.395 L 12.363 0 Z M 47.578 0 L 39.126 0 L 38.569 3.12 L 43.315 3.12 L 40.488 19.395 L 35.771 19.395 L 35.215 22.5 L 48.208 22.5 L 48.765 19.395 L 44.224 19.395 L 47.578 0 Z M 30.908 19.893 L 29.165 17.886 Q 28.286 18.779 27.173 19.277 A 5.282 5.282 0 0 1 24.991 19.735 A 5.966 5.966 0 0 1 24.785 19.731 A 3.962 3.962 0 0 1 23.985 19.64 A 3.115 3.115 0 0 1 23.284 19.395 A 3.254 3.254 0 0 1 22.464 18.825 A 2.991 2.991 0 0 1 22.207 18.545 Q 21.782 18.003 21.57 17.292 A 4.288 4.288 0 0 1 21.395 16.131 Q 21.394 16.091 21.394 16.05 A 5.02 5.02 0 0 1 21.401 15.776 L 31.875 15.776 L 32.124 14.165 A 10.272 10.272 0 0 0 32.205 12.89 A 9.037 9.037 0 0 0 32.058 11.25 A 6.872 6.872 0 0 0 31.488 9.482 A 6.147 6.147 0 0 0 31.084 8.774 A 5.487 5.487 0 0 0 29.165 7.053 Q 27.979 6.401 26.323 6.357 Q 25.151 6.328 24.089 6.628 A 7.907 7.907 0 0 0 22.19 7.437 A 7.438 7.438 0 0 0 22.134 7.471 Q 21.387 7.939 20.735 8.577 Q 20.083 9.214 19.556 9.932 A 10.002 10.002 0 0 0 18.406 12.129 A 9.812 9.812 0 0 0 17.827 14.575 L 17.769 15.176 A 9.025 9.025 0 0 0 17.73 16 Q 17.73 16.921 17.93 17.759 A 6.9 6.9 0 0 0 18.032 18.142 A 6.559 6.559 0 0 0 19.096 20.259 A 6.259 6.259 0 0 0 19.321 20.537 A 6.2 6.2 0 0 0 21.302 22.083 A 7.191 7.191 0 0 0 21.482 22.17 A 6.569 6.569 0 0 0 23.492 22.735 A 8.166 8.166 0 0 0 24.404 22.793 A 9.588 9.588 0 0 0 24.479 22.793 A 9.49 9.49 0 0 0 28.059 22.09 Q 29.839 21.372 30.908 19.893 Z M 61.245 22.104 L 61.758 19.014 L 58.213 19.014 L 57.642 22.266 A 9.855 9.855 0 0 1 57.086 24.269 A 8.853 8.853 0 0 1 56.851 24.807 A 22.314 22.314 0 0 1 55.652 26.984 A 24.45 24.45 0 0 1 55.562 27.129 L 57.539 28.228 A 11.043 11.043 0 0 0 58.835 26.99 A 11.082 11.082 0 0 0 59.927 25.547 A 9.359 9.359 0 0 0 60.754 23.892 Q 61.084 23.027 61.245 22.104 Z M 28.696 12.759 L 28.623 13.11 L 21.782 13.096 A 12.951 12.951 0 0 1 22.456 11.741 A 5.382 5.382 0 0 1 23.379 10.547 Q 23.892 10.005 24.558 9.697 Q 25.167 9.416 25.916 9.416 A 4.105 4.105 0 0 1 26.06 9.419 A 3.401 3.401 0 0 1 26.721 9.509 A 2.656 2.656 0 0 1 27.297 9.719 A 2.707 2.707 0 0 1 28.021 10.245 A 2.537 2.537 0 0 1 28.184 10.43 Q 28.535 10.884 28.667 11.484 A 3.25 3.25 0 0 1 28.741 12.183 Q 28.741 12.464 28.696 12.759 Z M 59.429 8.115 A 2.603 2.603 0 0 0 59.571 8.992 A 2.254 2.254 0 0 0 60.146 9.873 A 2.451 2.451 0 0 0 61.678 10.549 A 3.28 3.28 0 0 0 61.963 10.562 A 2.663 2.663 0 0 0 63.86 9.822 A 2.464 2.464 0 0 0 64.64 8.068 A 3.306 3.306 0 0 0 64.644 7.925 A 2.649 2.649 0 0 0 64.495 7.022 A 2.309 2.309 0 0 0 63.918 6.138 A 2.469 2.469 0 0 0 62.3 5.441 A 3.275 3.275 0 0 0 62.095 5.435 A 2.886 2.886 0 0 0 61.158 5.581 A 2.441 2.441 0 0 0 60.176 6.211 A 2.642 2.642 0 0 0 59.429 8.115 Z" vector-effect="non-scaling-stroke">
      </path>
  </g>
</svg>

